<?xml version="1.0" encoding="UTF-8"?>
<svg xmlns="http://www.w3.org/2000/svg" width="1800" height="450" viewBox="0 0 1800 450" preserveAspectRatio="xMidYMid meet" role="img" aria-labelledby="102_apricot_silk-title"><title id="102_apricot_silk-title">살구 비단</title><desc>Original editable vector banner background. No raster images or fonts. 4:1 aspect ratio. Empty center for type.</desc><defs><linearGradient id="102_apricot_silk-g" x1="0%" y1="0%" x2="100%" y2="100%"><stop offset="0%" stop-color="#fff8f0"/><stop offset="55%" stop-color="#ffd8c0"/><stop offset="100%" stop-color="#f0b090"/></linearGradient><clipPath id="102_apricot_silk-c"><rect width="1800" height="450"/></clipPath></defs><g clip-path="url(#102_apricot_silk-c)"><rect width="1800" height="450" fill="#fff3e8"/><rect width="1800" height="450" fill="url(#102_apricot_silk-g)"/>
  <path d="M-40 -80 C450 10 -120 270 380 490 H-40Z" fill="#e09070"/><path d="M-40 -20 C450 110 -120 300 380 490 H-40Z" fill="#f8c8a8"/><path d="M-40 40 C450 210 -120 330 380 490 H-40Z" fill="#ffe8d8"/>
  <g transform="translate(1800 450) rotate(180)"><path d="M-40 -80 C450 10 -120 270 380 490 H-40Z" fill="#e09070"/><path d="M-40 -20 C450 110 -120 300 380 490 H-40Z" fill="#f8c8a8"/><path d="M-40 40 C450 210 -120 330 380 490 H-40Z" fill="#ffe8d8"/></g>
  <path d="M0 70 C450 210 -80 300 410 450 M1800 380 C1350 240 1880 150 1390 0" fill="none" stroke="#ffffff" stroke-width="2" opacity=".55"/></g></svg>
