<?xml version="1.0" encoding="UTF-8"?>
<svg xmlns="http://www.w3.org/2000/svg" xmlns:inkscape="http://www.inkscape.org/namespaces/inkscape" width="1800" height="450" viewBox="0 0 1800 450" preserveAspectRatio="xMidYMid meet" role="img" aria-labelledby="b12-title"><title id="b12-title">라임 플로우</title><desc>Original editable vector banner background. No raster images or fonts. 4:1 aspect ratio.</desc><defs><linearGradient id="b12-g1" x1="0%" y1="0%" x2="100%" y2="100%"><stop offset="0.0%" stop-color="#f8ffbf" stop-opacity="1"/><stop offset="50.0%" stop-color="#eaffd4" stop-opacity="1"/><stop offset="100.0%" stop-color="#e1faf3" stop-opacity="1"/></linearGradient><clipPath id="b12-clip"><rect width="1800" height="450"/></clipPath></defs><g clip-path="url(#b12-clip)"><g id="base"><rect x="0" y="0" width="1800" height="450" fill="#efffcc"/></g><rect x="0" y="0" width="1800" height="450" fill="url(#b12-g1)"/><path d="M-40 -50 Q500 50 160 330 Q80 420 300 500 H-40Z" fill="#a8df55"/><path d="M1840 500 Q1270 300 1600 65 Q1720 -20 1530 -50 H1840Z" fill="#a8df55"/><path d="M-40 -50 Q410 50 90 330 Q80 420 300 500 H-40Z" fill="#40d1ac"/><path d="M1840 500 Q1360 300 1670 65 Q1720 -20 1530 -50 H1840Z" fill="#40d1ac"/><path d="M-40 -50 Q320 50 20 330 Q80 420 300 500 H-40Z" fill="#12a8b7"/><path d="M1840 500 Q1450 300 1740 65 Q1720 -20 1530 -50 H1840Z" fill="#12a8b7"/><path d="M40 0 Q450 80 115 320 M1780 450 Q1390 370 1725 140" fill="none" stroke="#eaffae" stroke-width="3"/></g></svg>