<?xml version="1.0" encoding="UTF-8"?>
<svg xmlns="http://www.w3.org/2000/svg" width="1800" height="450" viewBox="0 0 1800 450" preserveAspectRatio="xMidYMid meet" role="img" aria-labelledby="20_moonlight_sheer-title"><title id="20_moonlight_sheer-title">문라이트 쉬어</title><desc>Original editable vector banner background. No raster images or fonts. 4:1 aspect ratio. Empty center for type.</desc><defs><clipPath id="20_moonlight_sheer-c"><rect width="1800" height="450"/></clipPath></defs><g clip-path="url(#20_moonlight_sheer-c)"><rect width="1800" height="450" fill="#1b2236"/><circle cx="140" cy="90" r="90" fill="#f5ecd0" opacity=".9"/>
     <circle cx="170" cy="80" r="90" fill="#1b2236"/>
     <circle cx="286.0" cy="177.9" r="2.43" fill="#fbefc0" opacity="0.36"/><circle cx="162.4" cy="98.6" r="2.75" fill="#fbefc0" opacity="0.65"/><circle cx="158.1" cy="413.8" r="1.59" fill="#fbefc0" opacity="0.30"/><circle cx="105.8" cy="249.0" r="1.52" fill="#fbefc0" opacity="0.32"/><circle cx="368.4" cy="147.1" r="1.35" fill="#fbefc0" opacity="0.38"/><circle cx="38.7" cy="147.1" r="1.90" fill="#fbefc0" opacity="0.68"/><circle cx="352.5" cy="388.5" r="3.29" fill="#fbefc0" opacity="0.37"/><circle cx="72.8" cy="200.6" r="1.57" fill="#fbefc0" opacity="0.34"/><circle cx="196.5" cy="78.3" r="1.40" fill="#fbefc0" opacity="0.27"/><circle cx="315.7" cy="197.9" r="2.94" fill="#fbefc0" opacity="0.61"/><circle cx="331.5" cy="242.3" r="2.50" fill="#fbefc0" opacity="0.63"/><circle cx="77.1" cy="21.8" r="1.92" fill="#fbefc0" opacity="0.46"/><circle cx="205.3" cy="119.3" r="1.05" fill="#fbefc0" opacity="0.48"/><circle cx="160.7" cy="307.6" r="3.16" fill="#fbefc0" opacity="0.71"/><circle cx="176.7" cy="261.3" r="2.97" fill="#fbefc0" opacity="0.36"/><circle cx="266.2" cy="53.7" r="1.15" fill="#fbefc0" opacity="0.58"/><circle cx="274.6" cy="314.3" r="2.25" fill="#fbefc0" opacity="0.69"/><circle cx="275.4" cy="253.8" r="2.80" fill="#fbefc0" opacity="0.57"/><circle cx="343.4" cy="326.3" r="1.35" fill="#fbefc0" opacity="0.48"/><circle cx="87.3" cy="119.6" r="1.54" fill="#fbefc0" opacity="0.37"/><circle cx="311.4" cy="423.3" r="2.94" fill="#fbefc0" opacity="0.36"/><circle cx="125.0" cy="378.9" r="1.41" fill="#fbefc0" opacity="0.69"/><circle cx="42.6" cy="85.4" r="2.22" fill="#fbefc0" opacity="0.61"/><circle cx="123.6" cy="422.3" r="2.07" fill="#fbefc0" opacity="0.30"/><circle cx="65.3" cy="357.0" r="2.37" fill="#fbefc0" opacity="0.46"/><circle cx="98.2" cy="425.9" r="1.75" fill="#fbefc0" opacity="0.59"/><circle cx="25.5" cy="237.5" r="1.67" fill="#fbefc0" opacity="0.50"/><circle cx="16.5" cy="404.1" r="1.55" fill="#fbefc0" opacity="0.44"/><circle cx="118.3" cy="46.1" r="1.75" fill="#fbefc0" opacity="0.59"/><circle cx="20.9" cy="337.8" r="1.10" fill="#fbefc0" opacity="0.44"/><circle cx="178.3" cy="65.6" r="2.49" fill="#fbefc0" opacity="0.34"/><circle cx="339.0" cy="385.2" r="1.74" fill="#fbefc0" opacity="0.37"/><circle cx="140.2" cy="217.0" r="1.07" fill="#fbefc0" opacity="0.30"/><circle cx="335.2" cy="175.2" r="1.30" fill="#fbefc0" opacity="0.34"/><circle cx="215.7" cy="224.6" r="3.31" fill="#fbefc0" opacity="0.48"/><circle cx="329.8" cy="237.9" r="2.42" fill="#fbefc0" opacity="0.34"/><circle cx="333.2" cy="101.8" r="1.10" fill="#fbefc0" opacity="0.48"/><circle cx="136.4" cy="195.4" r="3.16" fill="#fbefc0" opacity="0.26"/><circle cx="52.7" cy="323.9" r="2.00" fill="#fbefc0" opacity="0.27"/><circle cx="92.4" cy="362.6" r="3.28" fill="#fbefc0" opacity="0.57"/><circle cx="315.9" cy="242.2" r="1.46" fill="#fbefc0" opacity="0.62"/><circle cx="210.7" cy="237.1" r="2.15" fill="#fbefc0" opacity="0.46"/><circle cx="304.9" cy="349.1" r="3.35" fill="#fbefc0" opacity="0.48"/><circle cx="83.5" cy="395.7" r="3.20" fill="#fbefc0" opacity="0.54"/><circle cx="7.2" cy="269.0" r="1.39" fill="#fbefc0" opacity="0.45"/><circle cx="256.8" cy="41.1" r="3.10" fill="#fbefc0" opacity="0.59"/><circle cx="320.7" cy="200.4" r="2.87" fill="#fbefc0" opacity="0.49"/><circle cx="225.2" cy="364.9" r="1.85" fill="#fbefc0" opacity="0.59"/><circle cx="307.7" cy="238.2" r="3.05" fill="#fbefc0" opacity="0.68"/><circle cx="132.1" cy="394.5" r="1.89" fill="#fbefc0" opacity="0.27"/>
     <path d="M0 360 Q180 300 360 370 T0 450Z" fill="#2a334c"/><g transform="translate(1800 0) scale(-1 1)"><circle cx="140" cy="90" r="90" fill="#f5ecd0" opacity=".9"/><circle cx="170" cy="80" r="90" fill="#1b2236"/><circle cx="343.2" cy="423.6" r="1.69" fill="#fbefc0" opacity="0.27"/><circle cx="75.4" cy="128.6" r="2.89" fill="#fbefc0" opacity="0.64"/><circle cx="340.2" cy="335.0" r="2.94" fill="#fbefc0" opacity="0.52"/><circle cx="310.5" cy="281.0" r="2.35" fill="#fbefc0" opacity="0.68"/><circle cx="224.8" cy="165.9" r="1.12" fill="#fbefc0" opacity="0.34"/><circle cx="152.5" cy="68.0" r="1.24" fill="#fbefc0" opacity="0.40"/><circle cx="358.2" cy="72.9" r="3.30" fill="#fbefc0" opacity="0.52"/><circle cx="325.6" cy="313.2" r="1.57" fill="#fbefc0" opacity="0.63"/><circle cx="61.3" cy="122.4" r="2.56" fill="#fbefc0" opacity="0.35"/><circle cx="325.4" cy="168.6" r="1.65" fill="#fbefc0" opacity="0.55"/><circle cx="121.0" cy="30.8" r="2.58" fill="#fbefc0" opacity="0.29"/><circle cx="294.3" cy="253.1" r="2.01" fill="#fbefc0" opacity="0.32"/><circle cx="99.3" cy="366.4" r="1.99" fill="#fbefc0" opacity="0.63"/><circle cx="352.2" cy="33.1" r="2.81" fill="#fbefc0" opacity="0.69"/><circle cx="173.3" cy="314.8" r="3.10" fill="#fbefc0" opacity="0.48"/><circle cx="136.6" cy="249.9" r="1.64" fill="#fbefc0" opacity="0.40"/><circle cx="327.4" cy="384.1" r="2.19" fill="#fbefc0" opacity="0.62"/><circle cx="109.2" cy="123.7" r="2.17" fill="#fbefc0" opacity="0.43"/><circle cx="39.1" cy="350.7" r="1.28" fill="#fbefc0" opacity="0.23"/><circle cx="175.1" cy="206.4" r="3.29" fill="#fbefc0" opacity="0.52"/><circle cx="53.6" cy="215.2" r="2.06" fill="#fbefc0" opacity="0.64"/><circle cx="16.5" cy="199.2" r="1.50" fill="#fbefc0" opacity="0.66"/><circle cx="15.3" cy="29.8" r="1.94" fill="#fbefc0" opacity="0.33"/><circle cx="190.9" cy="58.7" r="2.10" fill="#fbefc0" opacity="0.24"/><circle cx="95.3" cy="202.2" r="3.01" fill="#fbefc0" opacity="0.67"/><circle cx="362.2" cy="218.8" r="2.84" fill="#fbefc0" opacity="0.47"/><circle cx="189.6" cy="187.0" r="1.26" fill="#fbefc0" opacity="0.67"/><circle cx="312.2" cy="338.4" r="2.58" fill="#fbefc0" opacity="0.47"/><circle cx="284.9" cy="219.0" r="1.55" fill="#fbefc0" opacity="0.29"/><circle cx="306.6" cy="379.7" r="1.86" fill="#fbefc0" opacity="0.33"/><circle cx="28.0" cy="174.0" r="2.25" fill="#fbefc0" opacity="0.28"/><circle cx="378.9" cy="323.7" r="3.00" fill="#fbefc0" opacity="0.54"/><circle cx="161.9" cy="280.0" r="1.62" fill="#fbefc0" opacity="0.27"/><circle cx="349.5" cy="220.3" r="1.35" fill="#fbefc0" opacity="0.51"/><circle cx="7.1" cy="314.9" r="1.06" fill="#fbefc0" opacity="0.26"/><circle cx="306.0" cy="342.5" r="2.96" fill="#fbefc0" opacity="0.51"/><circle cx="228.4" cy="51.3" r="2.58" fill="#fbefc0" opacity="0.68"/><circle cx="183.1" cy="110.7" r="2.16" fill="#fbefc0" opacity="0.42"/><circle cx="296.6" cy="224.1" r="1.20" fill="#fbefc0" opacity="0.23"/><circle cx="334.0" cy="29.1" r="2.81" fill="#fbefc0" opacity="0.33"/><path d="M0 360 Q180 300 360 370 T0 450Z" fill="#2a334c"/></g></g></svg>
