<?xml version="1.0" encoding="UTF-8"?>
<svg xmlns="http://www.w3.org/2000/svg" xmlns:inkscape="http://www.inkscape.org/namespaces/inkscape" width="1800" height="450" viewBox="0 0 1800 450" preserveAspectRatio="xMidYMid meet" role="img" aria-labelledby="b26-title"><title id="b26-title">단청의 색</title><desc>Original editable vector banner background. No raster images or fonts. 4:1 aspect ratio.</desc><defs><clipPath id="b26-clip"><rect width="1800" height="450"/></clipPath></defs><g clip-path="url(#b26-clip)"><g id="base"><rect x="0" y="0" width="1800" height="450" fill="#f5ecd9"/></g><g ><circle cx="10" cy="100" r="105" fill="none" stroke="#326e6b" stroke-width="14"/><circle cx="10" cy="100" r="84" fill="none" stroke="#2f515a" stroke-width="14"/><circle cx="10" cy="100" r="63" fill="none" stroke="#659187" stroke-width="14"/><circle cx="10" cy="100" r="42" fill="none" stroke="#d4a756" stroke-width="14"/><g transform="translate(10 100) scale(0.6)"><ellipse cx="0" cy="-17" rx="11" ry="19" fill="#d9b66b" transform="rotate(0)"/><ellipse cx="0" cy="-17" rx="11" ry="19" fill="#d9b66b" transform="rotate(72)"/><ellipse cx="0" cy="-17" rx="11" ry="19" fill="#d9b66b" transform="rotate(144)"/><ellipse cx="0" cy="-17" rx="11" ry="19" fill="#d9b66b" transform="rotate(216)"/><ellipse cx="0" cy="-17" rx="11" ry="19" fill="#d9b66b" transform="rotate(288)"/><circle cx="0" cy="0" r="7" fill="#953f3d"/><circle cx="10.0" cy="0.0" r="1.8" fill="#953f3d"/><circle cx="5.403023058681398" cy="8.414709848078965" r="1.8" fill="#953f3d"/><circle cx="-4.161468365471424" cy="9.092974268256818" r="1.8" fill="#953f3d"/><circle cx="-9.899924966004454" cy="1.4112000805986722" r="1.8" fill="#953f3d"/><circle cx="-6.536436208636119" cy="-7.5680249530792825" r="1.8" fill="#953f3d"/><circle cx="2.8366218546322624" cy="-9.589242746631385" r="1.8" fill="#953f3d"/></g><circle cx="110" cy="100" r="105" fill="none" stroke="#aa4d43" stroke-width="14"/><circle cx="110" cy="100" r="84" fill="none" stroke="#326e6b" stroke-width="14"/><circle cx="110" cy="100" r="63" fill="none" stroke="#2f515a" stroke-width="14"/><circle cx="110" cy="100" r="42" fill="none" stroke="#659187" stroke-width="14"/><g transform="translate(110 100) scale(0.6)"><ellipse cx="0" cy="-17" rx="11" ry="19" fill="#d9b66b" transform="rotate(0)"/><ellipse cx="0" cy="-17" rx="11" ry="19" fill="#d9b66b" transform="rotate(72)"/><ellipse cx="0" cy="-17" rx="11" ry="19" fill="#d9b66b" transform="rotate(144)"/><ellipse cx="0" cy="-17" rx="11" ry="19" fill="#d9b66b" transform="rotate(216)"/><ellipse cx="0" cy="-17" rx="11" ry="19" fill="#d9b66b" transform="rotate(288)"/><circle cx="0" cy="0" r="7" fill="#953f3d"/><circle cx="10.0" cy="0.0" r="1.8" fill="#953f3d"/><circle cx="5.403023058681398" cy="8.414709848078965" r="1.8" fill="#953f3d"/><circle cx="-4.161468365471424" cy="9.092974268256818" r="1.8" fill="#953f3d"/><circle cx="-9.899924966004454" cy="1.4112000805986722" r="1.8" fill="#953f3d"/><circle cx="-6.536436208636119" cy="-7.5680249530792825" r="1.8" fill="#953f3d"/><circle cx="2.8366218546322624" cy="-9.589242746631385" r="1.8" fill="#953f3d"/></g><circle cx="210" cy="100" r="105" fill="none" stroke="#d4a756" stroke-width="14"/><circle cx="210" cy="100" r="84" fill="none" stroke="#aa4d43" stroke-width="14"/><circle cx="210" cy="100" r="63" fill="none" stroke="#326e6b" stroke-width="14"/><circle cx="210" cy="100" r="42" fill="none" stroke="#2f515a" stroke-width="14"/><g transform="translate(210 100) scale(0.6)"><ellipse cx="0" cy="-17" rx="11" ry="19" fill="#d9b66b" transform="rotate(0)"/><ellipse cx="0" cy="-17" rx="11" ry="19" fill="#d9b66b" transform="rotate(72)"/><ellipse cx="0" cy="-17" rx="11" ry="19" fill="#d9b66b" transform="rotate(144)"/><ellipse cx="0" cy="-17" rx="11" ry="19" fill="#d9b66b" transform="rotate(216)"/><ellipse cx="0" cy="-17" rx="11" ry="19" fill="#d9b66b" transform="rotate(288)"/><circle cx="0" cy="0" r="7" fill="#953f3d"/><circle cx="10.0" cy="0.0" r="1.8" fill="#953f3d"/><circle cx="5.403023058681398" cy="8.414709848078965" r="1.8" fill="#953f3d"/><circle cx="-4.161468365471424" cy="9.092974268256818" r="1.8" fill="#953f3d"/><circle cx="-9.899924966004454" cy="1.4112000805986722" r="1.8" fill="#953f3d"/><circle cx="-6.536436208636119" cy="-7.5680249530792825" r="1.8" fill="#953f3d"/><circle cx="2.8366218546322624" cy="-9.589242746631385" r="1.8" fill="#953f3d"/></g><circle cx="10" cy="350" r="105" fill="none" stroke="#326e6b" stroke-width="14"/><circle cx="10" cy="350" r="84" fill="none" stroke="#2f515a" stroke-width="14"/><circle cx="10" cy="350" r="63" fill="none" stroke="#659187" stroke-width="14"/><circle cx="10" cy="350" r="42" fill="none" stroke="#d4a756" stroke-width="14"/><g transform="translate(10 350) scale(0.6)"><ellipse cx="0" cy="-17" rx="11" ry="19" fill="#d9b66b" transform="rotate(0)"/><ellipse cx="0" cy="-17" rx="11" ry="19" fill="#d9b66b" transform="rotate(72)"/><ellipse cx="0" cy="-17" rx="11" ry="19" fill="#d9b66b" transform="rotate(144)"/><ellipse cx="0" cy="-17" rx="11" ry="19" fill="#d9b66b" transform="rotate(216)"/><ellipse cx="0" cy="-17" rx="11" ry="19" fill="#d9b66b" transform="rotate(288)"/><circle cx="0" cy="0" r="7" fill="#953f3d"/><circle cx="10.0" cy="0.0" r="1.8" fill="#953f3d"/><circle cx="5.403023058681398" cy="8.414709848078965" r="1.8" fill="#953f3d"/><circle cx="-4.161468365471424" cy="9.092974268256818" r="1.8" fill="#953f3d"/><circle cx="-9.899924966004454" cy="1.4112000805986722" r="1.8" fill="#953f3d"/><circle cx="-6.536436208636119" cy="-7.5680249530792825" r="1.8" fill="#953f3d"/><circle cx="2.8366218546322624" cy="-9.589242746631385" r="1.8" fill="#953f3d"/></g><circle cx="110" cy="350" r="105" fill="none" stroke="#aa4d43" stroke-width="14"/><circle cx="110" cy="350" r="84" fill="none" stroke="#326e6b" stroke-width="14"/><circle cx="110" cy="350" r="63" fill="none" stroke="#2f515a" stroke-width="14"/><circle cx="110" cy="350" r="42" fill="none" stroke="#659187" stroke-width="14"/><g transform="translate(110 350) scale(0.6)"><ellipse cx="0" cy="-17" rx="11" ry="19" fill="#d9b66b" transform="rotate(0)"/><ellipse cx="0" cy="-17" rx="11" ry="19" fill="#d9b66b" transform="rotate(72)"/><ellipse cx="0" cy="-17" rx="11" ry="19" fill="#d9b66b" transform="rotate(144)"/><ellipse cx="0" cy="-17" rx="11" ry="19" fill="#d9b66b" transform="rotate(216)"/><ellipse cx="0" cy="-17" rx="11" ry="19" fill="#d9b66b" transform="rotate(288)"/><circle cx="0" cy="0" r="7" fill="#953f3d"/><circle cx="10.0" cy="0.0" r="1.8" fill="#953f3d"/><circle cx="5.403023058681398" cy="8.414709848078965" r="1.8" fill="#953f3d"/><circle cx="-4.161468365471424" cy="9.092974268256818" r="1.8" fill="#953f3d"/><circle cx="-9.899924966004454" cy="1.4112000805986722" r="1.8" fill="#953f3d"/><circle cx="-6.536436208636119" cy="-7.5680249530792825" r="1.8" fill="#953f3d"/><circle cx="2.8366218546322624" cy="-9.589242746631385" r="1.8" fill="#953f3d"/></g><circle cx="210" cy="350" r="105" fill="none" stroke="#d4a756" stroke-width="14"/><circle cx="210" cy="350" r="84" fill="none" stroke="#aa4d43" stroke-width="14"/><circle cx="210" cy="350" r="63" fill="none" stroke="#326e6b" stroke-width="14"/><circle cx="210" cy="350" r="42" fill="none" stroke="#2f515a" stroke-width="14"/><g transform="translate(210 350) scale(0.6)"><ellipse cx="0" cy="-17" rx="11" ry="19" fill="#d9b66b" transform="rotate(0)"/><ellipse cx="0" cy="-17" rx="11" ry="19" fill="#d9b66b" transform="rotate(72)"/><ellipse cx="0" cy="-17" rx="11" ry="19" fill="#d9b66b" transform="rotate(144)"/><ellipse cx="0" cy="-17" rx="11" ry="19" fill="#d9b66b" transform="rotate(216)"/><ellipse cx="0" cy="-17" rx="11" ry="19" fill="#d9b66b" transform="rotate(288)"/><circle cx="0" cy="0" r="7" fill="#953f3d"/><circle cx="10.0" cy="0.0" r="1.8" fill="#953f3d"/><circle cx="5.403023058681398" cy="8.414709848078965" r="1.8" fill="#953f3d"/><circle cx="-4.161468365471424" cy="9.092974268256818" r="1.8" fill="#953f3d"/><circle cx="-9.899924966004454" cy="1.4112000805986722" r="1.8" fill="#953f3d"/><circle cx="-6.536436208636119" cy="-7.5680249530792825" r="1.8" fill="#953f3d"/><circle cx="2.8366218546322624" cy="-9.589242746631385" r="1.8" fill="#953f3d"/></g></g><g transform="translate(1800 450) rotate(180)"><circle cx="10" cy="100" r="105" fill="none" stroke="#326e6b" stroke-width="14"/><circle cx="10" cy="100" r="84" fill="none" stroke="#2f515a" stroke-width="14"/><circle cx="10" cy="100" r="63" fill="none" stroke="#659187" stroke-width="14"/><circle cx="10" cy="100" r="42" fill="none" stroke="#d4a756" stroke-width="14"/><g transform="translate(10 100) scale(0.6)"><ellipse cx="0" cy="-17" rx="11" ry="19" fill="#d9b66b" transform="rotate(0)"/><ellipse cx="0" cy="-17" rx="11" ry="19" fill="#d9b66b" transform="rotate(72)"/><ellipse cx="0" cy="-17" rx="11" ry="19" fill="#d9b66b" transform="rotate(144)"/><ellipse cx="0" cy="-17" rx="11" ry="19" fill="#d9b66b" transform="rotate(216)"/><ellipse cx="0" cy="-17" rx="11" ry="19" fill="#d9b66b" transform="rotate(288)"/><circle cx="0" cy="0" r="7" fill="#953f3d"/><circle cx="10.0" cy="0.0" r="1.8" fill="#953f3d"/><circle cx="5.403023058681398" cy="8.414709848078965" r="1.8" fill="#953f3d"/><circle cx="-4.161468365471424" cy="9.092974268256818" r="1.8" fill="#953f3d"/><circle cx="-9.899924966004454" cy="1.4112000805986722" r="1.8" fill="#953f3d"/><circle cx="-6.536436208636119" cy="-7.5680249530792825" r="1.8" fill="#953f3d"/><circle cx="2.8366218546322624" cy="-9.589242746631385" r="1.8" fill="#953f3d"/></g><circle cx="110" cy="100" r="105" fill="none" stroke="#aa4d43" stroke-width="14"/><circle cx="110" cy="100" r="84" fill="none" stroke="#326e6b" stroke-width="14"/><circle cx="110" cy="100" r="63" fill="none" stroke="#2f515a" stroke-width="14"/><circle cx="110" cy="100" r="42" fill="none" stroke="#659187" stroke-width="14"/><g transform="translate(110 100) scale(0.6)"><ellipse cx="0" cy="-17" rx="11" ry="19" fill="#d9b66b" transform="rotate(0)"/><ellipse cx="0" cy="-17" rx="11" ry="19" fill="#d9b66b" transform="rotate(72)"/><ellipse cx="0" cy="-17" rx="11" ry="19" fill="#d9b66b" transform="rotate(144)"/><ellipse cx="0" cy="-17" rx="11" ry="19" fill="#d9b66b" transform="rotate(216)"/><ellipse cx="0" cy="-17" rx="11" ry="19" fill="#d9b66b" transform="rotate(288)"/><circle cx="0" cy="0" r="7" fill="#953f3d"/><circle cx="10.0" cy="0.0" r="1.8" fill="#953f3d"/><circle cx="5.403023058681398" cy="8.414709848078965" r="1.8" fill="#953f3d"/><circle cx="-4.161468365471424" cy="9.092974268256818" r="1.8" fill="#953f3d"/><circle cx="-9.899924966004454" cy="1.4112000805986722" r="1.8" fill="#953f3d"/><circle cx="-6.536436208636119" cy="-7.5680249530792825" r="1.8" fill="#953f3d"/><circle cx="2.8366218546322624" cy="-9.589242746631385" r="1.8" fill="#953f3d"/></g><circle cx="210" cy="100" r="105" fill="none" stroke="#d4a756" stroke-width="14"/><circle cx="210" cy="100" r="84" fill="none" stroke="#aa4d43" stroke-width="14"/><circle cx="210" cy="100" r="63" fill="none" stroke="#326e6b" stroke-width="14"/><circle cx="210" cy="100" r="42" fill="none" stroke="#2f515a" stroke-width="14"/><g transform="translate(210 100) scale(0.6)"><ellipse cx="0" cy="-17" rx="11" ry="19" fill="#d9b66b" transform="rotate(0)"/><ellipse cx="0" cy="-17" rx="11" ry="19" fill="#d9b66b" transform="rotate(72)"/><ellipse cx="0" cy="-17" rx="11" ry="19" fill="#d9b66b" transform="rotate(144)"/><ellipse cx="0" cy="-17" rx="11" ry="19" fill="#d9b66b" transform="rotate(216)"/><ellipse cx="0" cy="-17" rx="11" ry="19" fill="#d9b66b" transform="rotate(288)"/><circle cx="0" cy="0" r="7" fill="#953f3d"/><circle cx="10.0" cy="0.0" r="1.8" fill="#953f3d"/><circle cx="5.403023058681398" cy="8.414709848078965" r="1.8" fill="#953f3d"/><circle cx="-4.161468365471424" cy="9.092974268256818" r="1.8" fill="#953f3d"/><circle cx="-9.899924966004454" cy="1.4112000805986722" r="1.8" fill="#953f3d"/><circle cx="-6.536436208636119" cy="-7.5680249530792825" r="1.8" fill="#953f3d"/><circle cx="2.8366218546322624" cy="-9.589242746631385" r="1.8" fill="#953f3d"/></g><circle cx="10" cy="350" r="105" fill="none" stroke="#326e6b" stroke-width="14"/><circle cx="10" cy="350" r="84" fill="none" stroke="#2f515a" stroke-width="14"/><circle cx="10" cy="350" r="63" fill="none" stroke="#659187" stroke-width="14"/><circle cx="10" cy="350" r="42" fill="none" stroke="#d4a756" stroke-width="14"/><g transform="translate(10 350) scale(0.6)"><ellipse cx="0" cy="-17" rx="11" ry="19" fill="#d9b66b" transform="rotate(0)"/><ellipse cx="0" cy="-17" rx="11" ry="19" fill="#d9b66b" transform="rotate(72)"/><ellipse cx="0" cy="-17" rx="11" ry="19" fill="#d9b66b" transform="rotate(144)"/><ellipse cx="0" cy="-17" rx="11" ry="19" fill="#d9b66b" transform="rotate(216)"/><ellipse cx="0" cy="-17" rx="11" ry="19" fill="#d9b66b" transform="rotate(288)"/><circle cx="0" cy="0" r="7" fill="#953f3d"/><circle cx="10.0" cy="0.0" r="1.8" fill="#953f3d"/><circle cx="5.403023058681398" cy="8.414709848078965" r="1.8" fill="#953f3d"/><circle cx="-4.161468365471424" cy="9.092974268256818" r="1.8" fill="#953f3d"/><circle cx="-9.899924966004454" cy="1.4112000805986722" r="1.8" fill="#953f3d"/><circle cx="-6.536436208636119" cy="-7.5680249530792825" r="1.8" fill="#953f3d"/><circle cx="2.8366218546322624" cy="-9.589242746631385" r="1.8" fill="#953f3d"/></g><circle cx="110" cy="350" r="105" fill="none" stroke="#aa4d43" stroke-width="14"/><circle cx="110" cy="350" r="84" fill="none" stroke="#326e6b" stroke-width="14"/><circle cx="110" cy="350" r="63" fill="none" stroke="#2f515a" stroke-width="14"/><circle cx="110" cy="350" r="42" fill="none" stroke="#659187" stroke-width="14"/><g transform="translate(110 350) scale(0.6)"><ellipse cx="0" cy="-17" rx="11" ry="19" fill="#d9b66b" transform="rotate(0)"/><ellipse cx="0" cy="-17" rx="11" ry="19" fill="#d9b66b" transform="rotate(72)"/><ellipse cx="0" cy="-17" rx="11" ry="19" fill="#d9b66b" transform="rotate(144)"/><ellipse cx="0" cy="-17" rx="11" ry="19" fill="#d9b66b" transform="rotate(216)"/><ellipse cx="0" cy="-17" rx="11" ry="19" fill="#d9b66b" transform="rotate(288)"/><circle cx="0" cy="0" r="7" fill="#953f3d"/><circle cx="10.0" cy="0.0" r="1.8" fill="#953f3d"/><circle cx="5.403023058681398" cy="8.414709848078965" r="1.8" fill="#953f3d"/><circle cx="-4.161468365471424" cy="9.092974268256818" r="1.8" fill="#953f3d"/><circle cx="-9.899924966004454" cy="1.4112000805986722" r="1.8" fill="#953f3d"/><circle cx="-6.536436208636119" cy="-7.5680249530792825" r="1.8" fill="#953f3d"/><circle cx="2.8366218546322624" cy="-9.589242746631385" r="1.8" fill="#953f3d"/></g><circle cx="210" cy="350" r="105" fill="none" stroke="#d4a756" stroke-width="14"/><circle cx="210" cy="350" r="84" fill="none" stroke="#aa4d43" stroke-width="14"/><circle cx="210" cy="350" r="63" fill="none" stroke="#326e6b" stroke-width="14"/><circle cx="210" cy="350" r="42" fill="none" stroke="#2f515a" stroke-width="14"/><g transform="translate(210 350) scale(0.6)"><ellipse cx="0" cy="-17" rx="11" ry="19" fill="#d9b66b" transform="rotate(0)"/><ellipse cx="0" cy="-17" rx="11" ry="19" fill="#d9b66b" transform="rotate(72)"/><ellipse cx="0" cy="-17" rx="11" ry="19" fill="#d9b66b" transform="rotate(144)"/><ellipse cx="0" cy="-17" rx="11" ry="19" fill="#d9b66b" transform="rotate(216)"/><ellipse cx="0" cy="-17" rx="11" ry="19" fill="#d9b66b" transform="rotate(288)"/><circle cx="0" cy="0" r="7" fill="#953f3d"/><circle cx="10.0" cy="0.0" r="1.8" fill="#953f3d"/><circle cx="5.403023058681398" cy="8.414709848078965" r="1.8" fill="#953f3d"/><circle cx="-4.161468365471424" cy="9.092974268256818" r="1.8" fill="#953f3d"/><circle cx="-9.899924966004454" cy="1.4112000805986722" r="1.8" fill="#953f3d"/><circle cx="-6.536436208636119" cy="-7.5680249530792825" r="1.8" fill="#953f3d"/><circle cx="2.8366218546322624" cy="-9.589242746631385" r="1.8" fill="#953f3d"/></g></g><line x1="390" y1="35" x2="1410" y2="35" stroke="#b9955d" stroke-width="2"/><line x1="390" y1="415" x2="1410" y2="415" stroke="#b9955d" stroke-width="2"/></g></svg>