<?xml version="1.0" encoding="UTF-8"?>
<svg xmlns="http://www.w3.org/2000/svg" width="1800" height="450" viewBox="0 0 1800 450" preserveAspectRatio="xMidYMid meet" role="img" aria-labelledby="56_iris-title"><title id="56_iris-title">단오 창포</title><desc>Original editable vector banner background. No raster images or fonts. 4:1 aspect ratio. Empty center for type.</desc><defs><clipPath id="56_iris-c"><rect width="1800" height="450"/></clipPath></defs><g clip-path="url(#56_iris-c)"><rect width="1800" height="450" fill="#eef6f2"/><path d="M10 450 Q-20 250 20 120" fill="none" stroke="#4d7a62" stroke-width="2"/><ellipse cx="24" cy="130" rx="16" ry="5" fill="#6d9b7e" transform="rotate(-25 24 130)"/><path d="M30 450 Q0 250 40 140" fill="none" stroke="#4d7a62" stroke-width="2"/><ellipse cx="44" cy="150" rx="16" ry="5" fill="#6d9b7e" transform="rotate(-25 44 150)"/><path d="M50 450 Q20 250 60 160" fill="none" stroke="#4d7a62" stroke-width="2"/><ellipse cx="64" cy="170" rx="16" ry="5" fill="#6d9b7e" transform="rotate(-25 64 170)"/><path d="M70 450 Q40 250 80 180" fill="none" stroke="#4d7a62" stroke-width="2"/><ellipse cx="84" cy="190" rx="16" ry="5" fill="#6d9b7e" transform="rotate(-25 84 190)"/><path d="M90 450 Q60 250 100 200" fill="none" stroke="#4d7a62" stroke-width="2"/><ellipse cx="104" cy="210" rx="16" ry="5" fill="#6d9b7e" transform="rotate(-25 104 210)"/><path d="M110 450 Q80 250 120 120" fill="none" stroke="#4d7a62" stroke-width="2"/><ellipse cx="124" cy="130" rx="16" ry="5" fill="#6d9b7e" transform="rotate(-25 124 130)"/><path d="M130 450 Q100 250 140 140" fill="none" stroke="#4d7a62" stroke-width="2"/><ellipse cx="144" cy="150" rx="16" ry="5" fill="#6d9b7e" transform="rotate(-25 144 150)"/><path d="M150 450 Q120 250 160 160" fill="none" stroke="#4d7a62" stroke-width="2"/><ellipse cx="164" cy="170" rx="16" ry="5" fill="#6d9b7e" transform="rotate(-25 164 170)"/><path d="M170 450 Q140 250 180 180" fill="none" stroke="#4d7a62" stroke-width="2"/><ellipse cx="184" cy="190" rx="16" ry="5" fill="#6d9b7e" transform="rotate(-25 184 190)"/><path d="M190 450 Q160 250 200 200" fill="none" stroke="#4d7a62" stroke-width="2"/><ellipse cx="204" cy="210" rx="16" ry="5" fill="#6d9b7e" transform="rotate(-25 204 210)"/><path d="M210 450 Q180 250 220 120" fill="none" stroke="#4d7a62" stroke-width="2"/><ellipse cx="224" cy="130" rx="16" ry="5" fill="#6d9b7e" transform="rotate(-25 224 130)"/><path d="M230 450 Q200 250 240 140" fill="none" stroke="#4d7a62" stroke-width="2"/><ellipse cx="244" cy="150" rx="16" ry="5" fill="#6d9b7e" transform="rotate(-25 244 150)"/><path d="M250 450 Q220 250 260 160" fill="none" stroke="#4d7a62" stroke-width="2"/><ellipse cx="264" cy="170" rx="16" ry="5" fill="#6d9b7e" transform="rotate(-25 264 170)"/><path d="M270 450 Q240 250 280 180" fill="none" stroke="#4d7a62" stroke-width="2"/><ellipse cx="284" cy="190" rx="16" ry="5" fill="#6d9b7e" transform="rotate(-25 284 190)"/><path d="M290 450 Q260 250 300 200" fill="none" stroke="#4d7a62" stroke-width="2"/><ellipse cx="304" cy="210" rx="16" ry="5" fill="#6d9b7e" transform="rotate(-25 304 210)"/><path d="M310 450 Q280 250 320 120" fill="none" stroke="#4d7a62" stroke-width="2"/><ellipse cx="324" cy="130" rx="16" ry="5" fill="#6d9b7e" transform="rotate(-25 324 130)"/><g transform="translate(1800 0) scale(-1 1)"><path d="M10 450 Q-20 250 20 120" fill="none" stroke="#4d7a62" stroke-width="2"/><ellipse cx="24" cy="130" rx="16" ry="5" fill="#6d9b7e" transform="rotate(-25 24 130)"/><path d="M30 450 Q0 250 40 140" fill="none" stroke="#4d7a62" stroke-width="2"/><ellipse cx="44" cy="150" rx="16" ry="5" fill="#6d9b7e" transform="rotate(-25 44 150)"/><path d="M50 450 Q20 250 60 160" fill="none" stroke="#4d7a62" stroke-width="2"/><ellipse cx="64" cy="170" rx="16" ry="5" fill="#6d9b7e" transform="rotate(-25 64 170)"/><path d="M70 450 Q40 250 80 180" fill="none" stroke="#4d7a62" stroke-width="2"/><ellipse cx="84" cy="190" rx="16" ry="5" fill="#6d9b7e" transform="rotate(-25 84 190)"/><path d="M90 450 Q60 250 100 200" fill="none" stroke="#4d7a62" stroke-width="2"/><ellipse cx="104" cy="210" rx="16" ry="5" fill="#6d9b7e" transform="rotate(-25 104 210)"/><path d="M110 450 Q80 250 120 120" fill="none" stroke="#4d7a62" stroke-width="2"/><ellipse cx="124" cy="130" rx="16" ry="5" fill="#6d9b7e" transform="rotate(-25 124 130)"/><path d="M130 450 Q100 250 140 140" fill="none" stroke="#4d7a62" stroke-width="2"/><ellipse cx="144" cy="150" rx="16" ry="5" fill="#6d9b7e" transform="rotate(-25 144 150)"/><path d="M150 450 Q120 250 160 160" fill="none" stroke="#4d7a62" stroke-width="2"/><ellipse cx="164" cy="170" rx="16" ry="5" fill="#6d9b7e" transform="rotate(-25 164 170)"/><path d="M170 450 Q140 250 180 180" fill="none" stroke="#4d7a62" stroke-width="2"/><ellipse cx="184" cy="190" rx="16" ry="5" fill="#6d9b7e" transform="rotate(-25 184 190)"/><path d="M190 450 Q160 250 200 200" fill="none" stroke="#4d7a62" stroke-width="2"/><ellipse cx="204" cy="210" rx="16" ry="5" fill="#6d9b7e" transform="rotate(-25 204 210)"/><path d="M210 450 Q180 250 220 120" fill="none" stroke="#4d7a62" stroke-width="2"/><ellipse cx="224" cy="130" rx="16" ry="5" fill="#6d9b7e" transform="rotate(-25 224 130)"/><path d="M230 450 Q200 250 240 140" fill="none" stroke="#4d7a62" stroke-width="2"/><ellipse cx="244" cy="150" rx="16" ry="5" fill="#6d9b7e" transform="rotate(-25 244 150)"/><path d="M250 450 Q220 250 260 160" fill="none" stroke="#4d7a62" stroke-width="2"/><ellipse cx="264" cy="170" rx="16" ry="5" fill="#6d9b7e" transform="rotate(-25 264 170)"/><path d="M270 450 Q240 250 280 180" fill="none" stroke="#4d7a62" stroke-width="2"/><ellipse cx="284" cy="190" rx="16" ry="5" fill="#6d9b7e" transform="rotate(-25 284 190)"/><path d="M290 450 Q260 250 300 200" fill="none" stroke="#4d7a62" stroke-width="2"/><ellipse cx="304" cy="210" rx="16" ry="5" fill="#6d9b7e" transform="rotate(-25 304 210)"/><path d="M310 450 Q280 250 320 120" fill="none" stroke="#4d7a62" stroke-width="2"/><ellipse cx="324" cy="130" rx="16" ry="5" fill="#6d9b7e" transform="rotate(-25 324 130)"/></g></g></svg>
