<?xml version="1.0" encoding="UTF-8"?>
<svg xmlns="http://www.w3.org/2000/svg" width="1800" height="450" viewBox="0 0 1800 450" preserveAspectRatio="xMidYMid meet" role="img" aria-labelledby="60_lotus_mid-title"><title id="60_lotus_mid-title">백중 연꽃</title><desc>Original editable vector banner background. No raster images or fonts. 4:1 aspect ratio. Empty center for type.</desc><defs><clipPath id="60_lotus_mid-c"><rect width="1800" height="450"/></clipPath></defs><g clip-path="url(#60_lotus_mid-c)"><rect width="1800" height="450" fill="#f3f7f2"/><circle cx="0" cy="0" r="304" fill="#f0c9d0" opacity="0.66"/><circle cx="0" cy="450" r="224" fill="#e8f0e6" opacity=".35"/><circle cx="0" cy="0" r="266" fill="#d48a96" opacity="0.60"/><circle cx="0" cy="450" r="196" fill="#8fbfa4" opacity=".35"/><circle cx="0" cy="0" r="228" fill="#e8f0e6" opacity="0.54"/><circle cx="0" cy="450" r="168" fill="#f0c9d0" opacity=".35"/><circle cx="0" cy="0" r="190" fill="#8fbfa4" opacity="0.48"/><circle cx="0" cy="450" r="140" fill="#d48a96" opacity=".35"/><circle cx="0" cy="0" r="152" fill="#f0c9d0" opacity="0.42"/><circle cx="0" cy="450" r="112" fill="#e8f0e6" opacity=".35"/><circle cx="0" cy="0" r="114" fill="#d48a96" opacity="0.36"/><circle cx="0" cy="450" r="84" fill="#8fbfa4" opacity=".35"/><circle cx="0" cy="0" r="76" fill="#e8f0e6" opacity="0.30"/><circle cx="0" cy="450" r="56" fill="#f0c9d0" opacity=".35"/><circle cx="0" cy="0" r="38" fill="#8fbfa4" opacity="0.24"/><circle cx="0" cy="450" r="28" fill="#d48a96" opacity=".35"/><g transform="translate(1800 0) scale(-1 1)"><circle cx="0" cy="0" r="304" fill="#f0c9d0" opacity="0.66"/><circle cx="0" cy="450" r="224" fill="#e8f0e6" opacity=".35"/><circle cx="0" cy="0" r="266" fill="#d48a96" opacity="0.60"/><circle cx="0" cy="450" r="196" fill="#8fbfa4" opacity=".35"/><circle cx="0" cy="0" r="228" fill="#e8f0e6" opacity="0.54"/><circle cx="0" cy="450" r="168" fill="#f0c9d0" opacity=".35"/><circle cx="0" cy="0" r="190" fill="#8fbfa4" opacity="0.48"/><circle cx="0" cy="450" r="140" fill="#d48a96" opacity=".35"/><circle cx="0" cy="0" r="152" fill="#f0c9d0" opacity="0.42"/><circle cx="0" cy="450" r="112" fill="#e8f0e6" opacity=".35"/><circle cx="0" cy="0" r="114" fill="#d48a96" opacity="0.36"/><circle cx="0" cy="450" r="84" fill="#8fbfa4" opacity=".35"/><circle cx="0" cy="0" r="76" fill="#e8f0e6" opacity="0.30"/><circle cx="0" cy="450" r="56" fill="#f0c9d0" opacity=".35"/><circle cx="0" cy="0" r="38" fill="#8fbfa4" opacity="0.24"/><circle cx="0" cy="450" r="28" fill="#d48a96" opacity=".35"/></g></g></svg>
