<?xml version="1.0" encoding="UTF-8"?>
<svg xmlns="http://www.w3.org/2000/svg" width="1800" height="450" viewBox="0 0 1800 450" preserveAspectRatio="xMidYMid meet" role="img" aria-labelledby="74_prism_beam-title"><title id="74_prism_beam-title">프리즘 빔</title><desc>Original editable vector banner background. No raster images or fonts. 4:1 aspect ratio. Empty center for type.</desc><defs><clipPath id="74_prism_beam-c"><rect width="1800" height="450"/></clipPath></defs><g clip-path="url(#74_prism_beam-c)"><rect width="1800" height="450" fill="#17124e"/><line x1="-80" y1="-20" x2="40" y2="480" stroke="#24cbea" stroke-width="14" opacity=".55"/><line x1="-58" y1="-20" x2="62" y2="480" stroke="#8862f8" stroke-width="14" opacity=".55"/><line x1="-36" y1="-20" x2="84" y2="480" stroke="#ef7fb9" stroke-width="14" opacity=".55"/><line x1="-14" y1="-20" x2="106" y2="480" stroke="#ffdc87" stroke-width="14" opacity=".55"/><line x1="8" y1="-20" x2="128" y2="480" stroke="#24cbea" stroke-width="14" opacity=".55"/><line x1="30" y1="-20" x2="150" y2="480" stroke="#8862f8" stroke-width="14" opacity=".55"/><line x1="52" y1="-20" x2="172" y2="480" stroke="#ef7fb9" stroke-width="14" opacity=".55"/><line x1="74" y1="-20" x2="194" y2="480" stroke="#ffdc87" stroke-width="14" opacity=".55"/><line x1="96" y1="-20" x2="216" y2="480" stroke="#24cbea" stroke-width="14" opacity=".55"/><line x1="118" y1="-20" x2="238" y2="480" stroke="#8862f8" stroke-width="14" opacity=".55"/><line x1="140" y1="-20" x2="260" y2="480" stroke="#ef7fb9" stroke-width="14" opacity=".55"/><line x1="162" y1="-20" x2="282" y2="480" stroke="#ffdc87" stroke-width="14" opacity=".55"/><line x1="184" y1="-20" x2="304" y2="480" stroke="#24cbea" stroke-width="14" opacity=".55"/><line x1="206" y1="-20" x2="326" y2="480" stroke="#8862f8" stroke-width="14" opacity=".55"/><line x1="228" y1="-20" x2="348" y2="480" stroke="#ef7fb9" stroke-width="14" opacity=".55"/><line x1="250" y1="-20" x2="370" y2="480" stroke="#ffdc87" stroke-width="14" opacity=".55"/><line x1="272" y1="-20" x2="392" y2="480" stroke="#24cbea" stroke-width="14" opacity=".55"/><line x1="294" y1="-20" x2="414" y2="480" stroke="#8862f8" stroke-width="14" opacity=".55"/><g transform="translate(1800 0) scale(-1 1)"><line x1="-80" y1="-20" x2="40" y2="480" stroke="#24cbea" stroke-width="14" opacity=".55"/><line x1="-58" y1="-20" x2="62" y2="480" stroke="#8862f8" stroke-width="14" opacity=".55"/><line x1="-36" y1="-20" x2="84" y2="480" stroke="#ef7fb9" stroke-width="14" opacity=".55"/><line x1="-14" y1="-20" x2="106" y2="480" stroke="#ffdc87" stroke-width="14" opacity=".55"/><line x1="8" y1="-20" x2="128" y2="480" stroke="#24cbea" stroke-width="14" opacity=".55"/><line x1="30" y1="-20" x2="150" y2="480" stroke="#8862f8" stroke-width="14" opacity=".55"/><line x1="52" y1="-20" x2="172" y2="480" stroke="#ef7fb9" stroke-width="14" opacity=".55"/><line x1="74" y1="-20" x2="194" y2="480" stroke="#ffdc87" stroke-width="14" opacity=".55"/><line x1="96" y1="-20" x2="216" y2="480" stroke="#24cbea" stroke-width="14" opacity=".55"/><line x1="118" y1="-20" x2="238" y2="480" stroke="#8862f8" stroke-width="14" opacity=".55"/><line x1="140" y1="-20" x2="260" y2="480" stroke="#ef7fb9" stroke-width="14" opacity=".55"/><line x1="162" y1="-20" x2="282" y2="480" stroke="#ffdc87" stroke-width="14" opacity=".55"/><line x1="184" y1="-20" x2="304" y2="480" stroke="#24cbea" stroke-width="14" opacity=".55"/><line x1="206" y1="-20" x2="326" y2="480" stroke="#8862f8" stroke-width="14" opacity=".55"/><line x1="228" y1="-20" x2="348" y2="480" stroke="#ef7fb9" stroke-width="14" opacity=".55"/><line x1="250" y1="-20" x2="370" y2="480" stroke="#ffdc87" stroke-width="14" opacity=".55"/><line x1="272" y1="-20" x2="392" y2="480" stroke="#24cbea" stroke-width="14" opacity=".55"/><line x1="294" y1="-20" x2="414" y2="480" stroke="#8862f8" stroke-width="14" opacity=".55"/></g></g></svg>
