<?xml version="1.0" encoding="UTF-8"?>
<svg xmlns="http://www.w3.org/2000/svg" width="1800" height="450" viewBox="0 0 1800 450" preserveAspectRatio="xMidYMid meet" role="img" aria-labelledby="83_indigo_night-title"><title id="83_indigo_night-title">인디고 나이트</title><desc>Original editable vector banner background. No raster images or fonts. 4:1 aspect ratio. Empty center for type.</desc><defs><radialGradient id="83_indigo_night-g" cx="32%" cy="25%" r="76%"><stop offset="0%" stop-color="#7dd3fc"/><stop offset="55%" stop-color="#6366f1"/><stop offset="100%" stop-color="#1e1b4b"/></radialGradient><clipPath id="83_indigo_night-c"><rect width="1800" height="450"/></clipPath></defs><g clip-path="url(#83_indigo_night-c)"><rect width="1800" height="450" fill="#12182c"/><line x1="732" y1="290" x2="-500" y2="450" stroke="#334155" stroke-width="1" opacity=".42"/><line x1="744" y1="290" x2="-400" y2="450" stroke="#334155" stroke-width="1" opacity=".42"/><line x1="756" y1="290" x2="-300" y2="450" stroke="#334155" stroke-width="1" opacity=".42"/><line x1="768" y1="290" x2="-200" y2="450" stroke="#334155" stroke-width="1" opacity=".42"/><line x1="780" y1="290" x2="-100" y2="450" stroke="#334155" stroke-width="1" opacity=".42"/><line x1="792" y1="290" x2="0" y2="450" stroke="#334155" stroke-width="1" opacity=".42"/><line x1="804" y1="290" x2="100" y2="450" stroke="#334155" stroke-width="1" opacity=".42"/><line x1="816" y1="290" x2="200" y2="450" stroke="#334155" stroke-width="1" opacity=".42"/><line x1="828" y1="290" x2="300" y2="450" stroke="#334155" stroke-width="1" opacity=".42"/><line x1="840" y1="290" x2="400" y2="450" stroke="#334155" stroke-width="1" opacity=".42"/><line x1="852" y1="290" x2="500" y2="450" stroke="#334155" stroke-width="1" opacity=".42"/><line x1="864" y1="290" x2="600" y2="450" stroke="#334155" stroke-width="1" opacity=".42"/><line x1="876" y1="290" x2="700" y2="450" stroke="#334155" stroke-width="1" opacity=".42"/><line x1="888" y1="290" x2="800" y2="450" stroke="#334155" stroke-width="1" opacity=".42"/><line x1="900" y1="290" x2="900" y2="450" stroke="#334155" stroke-width="1" opacity=".42"/><line x1="912" y1="290" x2="1000" y2="450" stroke="#334155" stroke-width="1" opacity=".42"/><line x1="924" y1="290" x2="1100" y2="450" stroke="#334155" stroke-width="1" opacity=".42"/><line x1="936" y1="290" x2="1200" y2="450" stroke="#334155" stroke-width="1" opacity=".42"/><line x1="948" y1="290" x2="1300" y2="450" stroke="#334155" stroke-width="1" opacity=".42"/><line x1="960" y1="290" x2="1400" y2="450" stroke="#334155" stroke-width="1" opacity=".42"/><line x1="972" y1="290" x2="1500" y2="450" stroke="#334155" stroke-width="1" opacity=".42"/><line x1="984" y1="290" x2="1600" y2="450" stroke="#334155" stroke-width="1" opacity=".42"/><line x1="996" y1="290" x2="1700" y2="450" stroke="#334155" stroke-width="1" opacity=".42"/><line x1="1008" y1="290" x2="1800" y2="450" stroke="#334155" stroke-width="1" opacity=".42"/><line x1="1020" y1="290" x2="1900" y2="450" stroke="#334155" stroke-width="1" opacity=".42"/><line x1="1032" y1="290" x2="2000" y2="450" stroke="#334155" stroke-width="1" opacity=".42"/><line x1="1044" y1="290" x2="2100" y2="450" stroke="#334155" stroke-width="1" opacity=".42"/><line x1="1056" y1="290" x2="2200" y2="450" stroke="#334155" stroke-width="1" opacity=".42"/><line x1="0" y1="300" x2="1800" y2="300" stroke="#334155" stroke-width="1" opacity=".42"/><line x1="0" y1="317" x2="1800" y2="317" stroke="#334155" stroke-width="1" opacity=".42"/><line x1="0" y1="344" x2="1800" y2="344" stroke="#334155" stroke-width="1" opacity=".42"/><line x1="0" y1="384" x2="1800" y2="384" stroke="#334155" stroke-width="1" opacity=".42"/><line x1="0" y1="435" x2="1800" y2="435" stroke="#334155" stroke-width="1" opacity=".42"/><circle cx="110" cy="75" r="140" fill="url(#83_indigo_night-g)"/><circle cx="1730" cy="20" r="182" fill="url(#83_indigo_night-g)"/><circle cx="254.2" cy="125.7" r="2.38" fill="#bae6fd" opacity="0.51"/><circle cx="242.2" cy="172.4" r="1.50" fill="#bae6fd" opacity="0.40"/><circle cx="47.9" cy="393.0" r="2.22" fill="#bae6fd" opacity="0.64"/><circle cx="190.2" cy="211.2" r="1.18" fill="#bae6fd" opacity="0.61"/><circle cx="253.4" cy="258.0" r="2.07" fill="#bae6fd" opacity="0.44"/><circle cx="72.2" cy="222.5" r="3.00" fill="#bae6fd" opacity="0.26"/><circle cx="72.2" cy="257.8" r="1.40" fill="#bae6fd" opacity="0.60"/><circle cx="303.5" cy="313.3" r="3.28" fill="#bae6fd" opacity="0.27"/><circle cx="352.7" cy="112.7" r="1.18" fill="#bae6fd" opacity="0.72"/><circle cx="22.6" cy="194.7" r="3.07" fill="#bae6fd" opacity="0.43"/><circle cx="64.6" cy="382.0" r="1.89" fill="#bae6fd" opacity="0.29"/><circle cx="223.0" cy="425.2" r="1.46" fill="#bae6fd" opacity="0.57"/><circle cx="155.1" cy="376.4" r="2.26" fill="#bae6fd" opacity="0.23"/><circle cx="150.4" cy="424.6" r="2.10" fill="#bae6fd" opacity="0.36"/><circle cx="136.3" cy="216.6" r="2.67" fill="#bae6fd" opacity="0.37"/><circle cx="28.3" cy="400.9" r="1.31" fill="#bae6fd" opacity="0.56"/><circle cx="119.6" cy="96.4" r="2.97" fill="#bae6fd" opacity="0.71"/><circle cx="317.0" cy="249.0" r="2.71" fill="#bae6fd" opacity="0.70"/><circle cx="119.5" cy="159.4" r="3.11" fill="#bae6fd" opacity="0.65"/><circle cx="302.2" cy="278.4" r="1.45" fill="#bae6fd" opacity="0.29"/><circle cx="40.1" cy="32.8" r="2.80" fill="#bae6fd" opacity="0.58"/><circle cx="181.7" cy="418.8" r="2.81" fill="#bae6fd" opacity="0.33"/><circle cx="153.7" cy="245.7" r="1.40" fill="#bae6fd" opacity="0.46"/><circle cx="161.0" cy="210.7" r="2.08" fill="#bae6fd" opacity="0.65"/><circle cx="330.3" cy="271.8" r="2.79" fill="#bae6fd" opacity="0.67"/><circle cx="99.8" cy="99.3" r="1.02" fill="#bae6fd" opacity="0.66"/><circle cx="43.4" cy="383.7" r="1.60" fill="#bae6fd" opacity="0.69"/><circle cx="60.9" cy="157.1" r="1.94" fill="#bae6fd" opacity="0.48"/><circle cx="84.0" cy="363.3" r="3.04" fill="#bae6fd" opacity="0.41"/><circle cx="122.2" cy="244.6" r="2.74" fill="#bae6fd" opacity="0.26"/><circle cx="213.6" cy="374.2" r="2.80" fill="#bae6fd" opacity="0.69"/><circle cx="42.3" cy="251.2" r="1.32" fill="#bae6fd" opacity="0.50"/><circle cx="296.7" cy="403.2" r="2.32" fill="#bae6fd" opacity="0.61"/><circle cx="52.5" cy="26.3" r="2.03" fill="#bae6fd" opacity="0.65"/><circle cx="145.7" cy="253.1" r="1.78" fill="#bae6fd" opacity="0.40"/><circle cx="126.6" cy="407.9" r="2.83" fill="#bae6fd" opacity="0.29"/><circle cx="173.4" cy="422.4" r="1.36" fill="#bae6fd" opacity="0.54"/><circle cx="57.5" cy="101.5" r="3.15" fill="#bae6fd" opacity="0.62"/><circle cx="230.1" cy="396.9" r="1.08" fill="#bae6fd" opacity="0.56"/><circle cx="277.1" cy="219.8" r="1.68" fill="#bae6fd" opacity="0.53"/><circle cx="1719.0" cy="30.4" r="2.22" fill="#bae6fd" opacity="0.50"/><circle cx="1661.2" cy="59.8" r="2.22" fill="#bae6fd" opacity="0.65"/><circle cx="1618.5" cy="153.8" r="2.69" fill="#bae6fd" opacity="0.31"/><circle cx="1666.4" cy="151.8" r="1.80" fill="#bae6fd" opacity="0.26"/><circle cx="1746.7" cy="401.3" r="2.14" fill="#bae6fd" opacity="0.22"/><circle cx="1583.2" cy="144.0" r="2.72" fill="#bae6fd" opacity="0.52"/><circle cx="1648.8" cy="54.9" r="1.61" fill="#bae6fd" opacity="0.37"/><circle cx="1487.6" cy="327.9" r="2.64" fill="#bae6fd" opacity="0.47"/><circle cx="1689.0" cy="121.1" r="3.30" fill="#bae6fd" opacity="0.32"/><circle cx="1482.6" cy="421.2" r="1.60" fill="#bae6fd" opacity="0.58"/><circle cx="1701.7" cy="362.8" r="1.53" fill="#bae6fd" opacity="0.40"/><circle cx="1496.3" cy="145.6" r="2.79" fill="#bae6fd" opacity="0.63"/><circle cx="1564.9" cy="253.6" r="2.76" fill="#bae6fd" opacity="0.56"/><circle cx="1529.9" cy="361.0" r="1.72" fill="#bae6fd" opacity="0.47"/><circle cx="1467.0" cy="164.4" r="1.85" fill="#bae6fd" opacity="0.57"/><circle cx="1627.4" cy="345.6" r="1.38" fill="#bae6fd" opacity="0.49"/><circle cx="1537.1" cy="424.9" r="2.91" fill="#bae6fd" opacity="0.47"/><circle cx="1537.2" cy="85.0" r="1.81" fill="#bae6fd" opacity="0.51"/><circle cx="1719.0" cy="123.6" r="2.25" fill="#bae6fd" opacity="0.60"/><circle cx="1761.7" cy="363.7" r="1.29" fill="#bae6fd" opacity="0.68"/><circle cx="1532.2" cy="249.4" r="2.23" fill="#bae6fd" opacity="0.39"/><circle cx="1591.6" cy="370.6" r="2.55" fill="#bae6fd" opacity="0.51"/><circle cx="1460.4" cy="367.8" r="2.63" fill="#bae6fd" opacity="0.31"/><circle cx="1796.9" cy="330.3" r="1.99" fill="#bae6fd" opacity="0.31"/><circle cx="1592.7" cy="405.7" r="1.69" fill="#bae6fd" opacity="0.35"/><circle cx="1685.2" cy="107.1" r="1.41" fill="#bae6fd" opacity="0.65"/><circle cx="1771.3" cy="51.3" r="2.88" fill="#bae6fd" opacity="0.40"/><circle cx="1507.1" cy="146.1" r="2.69" fill="#bae6fd" opacity="0.24"/><circle cx="1449.7" cy="80.2" r="2.54" fill="#bae6fd" opacity="0.39"/><circle cx="1534.2" cy="192.7" r="3.20" fill="#bae6fd" opacity="0.69"/><circle cx="1492.3" cy="87.8" r="2.08" fill="#bae6fd" opacity="0.62"/><circle cx="1760.9" cy="312.6" r="1.71" fill="#bae6fd" opacity="0.34"/><circle cx="1524.5" cy="39.0" r="2.17" fill="#bae6fd" opacity="0.31"/><circle cx="1467.6" cy="328.4" r="2.04" fill="#bae6fd" opacity="0.43"/><circle cx="1450.5" cy="371.1" r="2.79" fill="#bae6fd" opacity="0.56"/><circle cx="1774.5" cy="263.9" r="2.13" fill="#bae6fd" opacity="0.30"/><circle cx="1642.8" cy="135.2" r="2.75" fill="#bae6fd" opacity="0.24"/><circle cx="1710.0" cy="198.0" r="3.21" fill="#bae6fd" opacity="0.38"/><circle cx="1639.5" cy="310.3" r="2.14" fill="#bae6fd" opacity="0.23"/><circle cx="1567.6" cy="71.9" r="2.06" fill="#bae6fd" opacity="0.33"/></g></svg>
