<?xml version="1.0" encoding="UTF-8"?>
<svg xmlns="http://www.w3.org/2000/svg" width="1800" height="450" viewBox="0 0 1800 450" preserveAspectRatio="xMidYMid meet" role="img" aria-labelledby="85_rose_quartz-title"><title id="85_rose_quartz-title">로즈쿼츠</title><desc>Original editable vector banner background. No raster images or fonts. 4:1 aspect ratio. Empty center for type.</desc><defs><linearGradient id="85_rose_quartz-g" x1="0%" y1="0%" x2="100%" y2="100%"><stop offset="0%" stop-color="#fff7fa"/><stop offset="55%" stop-color="#f3d0dc"/><stop offset="100%" stop-color="#e8a8bc"/></linearGradient><clipPath id="85_rose_quartz-c"><rect width="1800" height="450"/></clipPath></defs><g clip-path="url(#85_rose_quartz-c)"><rect width="1800" height="450" fill="#fbf1f4"/><rect width="1800" height="450" fill="url(#85_rose_quartz-g)"/>
  <path d="M-40 -80 C450 10 -120 270 380 490 H-40Z" fill="#d48098"/><path d="M-40 -20 C450 110 -120 300 380 490 H-40Z" fill="#f0c0d0"/><path d="M-40 40 C450 210 -120 330 380 490 H-40Z" fill="#fae4ea"/>
  <g transform="translate(1800 450) rotate(180)"><path d="M-40 -80 C450 10 -120 270 380 490 H-40Z" fill="#d48098"/><path d="M-40 -20 C450 110 -120 300 380 490 H-40Z" fill="#f0c0d0"/><path d="M-40 40 C450 210 -120 330 380 490 H-40Z" fill="#fae4ea"/></g>
  <path d="M0 70 C450 210 -80 300 410 450 M1800 380 C1350 240 1880 150 1390 0" fill="none" stroke="#ffffff" stroke-width="2" opacity=".55"/></g></svg>
