<?xml version="1.0" encoding="UTF-8"?>
<svg xmlns="http://www.w3.org/2000/svg" width="1800" height="450" viewBox="0 0 1800 450" preserveAspectRatio="xMidYMid meet" role="img" aria-labelledby="88_ivory_paper-title"><title id="88_ivory_paper-title">아이보리 페이퍼</title><desc>Original editable vector banner background. No raster images or fonts. 4:1 aspect ratio. Empty center for type.</desc><defs><linearGradient id="88_ivory_paper-g" x1="0%" y1="0%" x2="100%" y2="100%"><stop offset="0%" stop-color="#fffaf0"/><stop offset="100%" stop-color="#d8ccb0"/></linearGradient><clipPath id="88_ivory_paper-c"><rect width="1800" height="450"/></clipPath></defs><g clip-path="url(#88_ivory_paper-c)"><rect width="1800" height="450" fill="#f7f3e8"/><path d="M-70 -10 L135 225 L-70 460 H-200 L10 225 L-200 -10Z" fill="url(#88_ivory_paper-g)" opacity="0.55"/><path d="M20 -10 L195 225 L20 460 H-110 L70 225 L-110 -10Z" fill="url(#88_ivory_paper-g)" opacity="0.65"/><path d="M110 -10 L255 225 L110 460 H-20 L130 225 L-20 -10Z" fill="url(#88_ivory_paper-g)" opacity="0.75"/><path d="M200 -10 L315 225 L200 460 H70 L190 225 L70 -10Z" fill="url(#88_ivory_paper-g)" opacity="0.85"/><g transform="translate(1800 450) rotate(180)"><path d="M-70 -10 L135 225 L-70 460 H-200 L10 225 L-200 -10Z" fill="url(#88_ivory_paper-g)" opacity="0.55"/><path d="M20 -10 L195 225 L20 460 H-110 L70 225 L-110 -10Z" fill="url(#88_ivory_paper-g)" opacity="0.65"/><path d="M110 -10 L255 225 L110 460 H-20 L130 225 L-20 -10Z" fill="url(#88_ivory_paper-g)" opacity="0.75"/><path d="M200 -10 L315 225 L200 460 H70 L190 225 L70 -10Z" fill="url(#88_ivory_paper-g)" opacity="0.85"/></g><line x1="520" y1="395" x2="1280" y2="395" stroke="#c8bc9e" stroke-width="1"/></g></svg>
