<?xml version="1.0" encoding="UTF-8"?>
<svg xmlns="http://www.w3.org/2000/svg" width="1800" height="450" viewBox="0 0 1800 450" preserveAspectRatio="xMidYMid meet" role="img" aria-labelledby="89_coral_reef-title"><title id="89_coral_reef-title">코랄 리프</title><desc>Original editable vector banner background. No raster images or fonts. 4:1 aspect ratio. Empty center for type.</desc><defs><clipPath id="89_coral_reef-c"><rect width="1800" height="450"/></clipPath></defs><g clip-path="url(#89_coral_reef-c)"><rect width="1800" height="450" fill="#fff5ef"/><path d="M30 450 Q10 320 38 180 Q60 300 40 450Z" fill="#f2a080" opacity=".8"/><path d="M72 450 Q52 320 80 220 Q102 300 82 450Z" fill="#e07060" opacity=".8"/><path d="M114 450 Q94 320 122 260 Q144 300 124 450Z" fill="#f8d0c0" opacity=".8"/><path d="M156 450 Q136 320 164 180 Q186 300 166 450Z" fill="#c85048" opacity=".8"/><path d="M198 450 Q178 320 206 220 Q228 300 208 450Z" fill="#ffc8a8" opacity=".8"/><path d="M240 450 Q220 320 248 260 Q270 300 250 450Z" fill="#f2a080" opacity=".8"/><path d="M282 450 Q262 320 290 180 Q312 300 292 450Z" fill="#e07060" opacity=".8"/><g transform="translate(1800 0) scale(-1 1)"><path d="M30 450 Q10 320 38 180 Q60 300 40 450Z" fill="#f2a080" opacity=".8"/><path d="M72 450 Q52 320 80 220 Q102 300 82 450Z" fill="#e07060" opacity=".8"/><path d="M114 450 Q94 320 122 260 Q144 300 124 450Z" fill="#f8d0c0" opacity=".8"/><path d="M156 450 Q136 320 164 180 Q186 300 166 450Z" fill="#c85048" opacity=".8"/><path d="M198 450 Q178 320 206 220 Q228 300 208 450Z" fill="#ffc8a8" opacity=".8"/><path d="M240 450 Q220 320 248 260 Q270 300 250 450Z" fill="#f2a080" opacity=".8"/><path d="M282 450 Q262 320 290 180 Q312 300 292 450Z" fill="#e07060" opacity=".8"/></g><circle cx="900" cy="70" r="28" fill="#ffe1a0" opacity=".7"/></g></svg>
