<?xml version="1.0" encoding="UTF-8"?>
<svg xmlns="http://www.w3.org/2000/svg" width="1800" height="450" viewBox="0 0 1800 450" preserveAspectRatio="xMidYMid meet" role="img" aria-labelledby="94_skyline-title"><title id="94_skyline-title">스카이라인</title><desc>Original editable vector banner background. No raster images or fonts. 4:1 aspect ratio. Empty center for type.</desc><defs><radialGradient id="94_skyline-g" cx="32%" cy="25%" r="76%"><stop offset="0%" stop-color="#7dd3fc"/><stop offset="55%" stop-color="#64748b"/><stop offset="100%" stop-color="#1e293b"/></radialGradient><clipPath id="94_skyline-c"><rect width="1800" height="450"/></clipPath></defs><g clip-path="url(#94_skyline-c)"><rect width="1800" height="450" fill="#e8eef6"/><line x1="732" y1="290" x2="-500" y2="450" stroke="#94a3b8" stroke-width="1" opacity=".42"/><line x1="744" y1="290" x2="-400" y2="450" stroke="#94a3b8" stroke-width="1" opacity=".42"/><line x1="756" y1="290" x2="-300" y2="450" stroke="#94a3b8" stroke-width="1" opacity=".42"/><line x1="768" y1="290" x2="-200" y2="450" stroke="#94a3b8" stroke-width="1" opacity=".42"/><line x1="780" y1="290" x2="-100" y2="450" stroke="#94a3b8" stroke-width="1" opacity=".42"/><line x1="792" y1="290" x2="0" y2="450" stroke="#94a3b8" stroke-width="1" opacity=".42"/><line x1="804" y1="290" x2="100" y2="450" stroke="#94a3b8" stroke-width="1" opacity=".42"/><line x1="816" y1="290" x2="200" y2="450" stroke="#94a3b8" stroke-width="1" opacity=".42"/><line x1="828" y1="290" x2="300" y2="450" stroke="#94a3b8" stroke-width="1" opacity=".42"/><line x1="840" y1="290" x2="400" y2="450" stroke="#94a3b8" stroke-width="1" opacity=".42"/><line x1="852" y1="290" x2="500" y2="450" stroke="#94a3b8" stroke-width="1" opacity=".42"/><line x1="864" y1="290" x2="600" y2="450" stroke="#94a3b8" stroke-width="1" opacity=".42"/><line x1="876" y1="290" x2="700" y2="450" stroke="#94a3b8" stroke-width="1" opacity=".42"/><line x1="888" y1="290" x2="800" y2="450" stroke="#94a3b8" stroke-width="1" opacity=".42"/><line x1="900" y1="290" x2="900" y2="450" stroke="#94a3b8" stroke-width="1" opacity=".42"/><line x1="912" y1="290" x2="1000" y2="450" stroke="#94a3b8" stroke-width="1" opacity=".42"/><line x1="924" y1="290" x2="1100" y2="450" stroke="#94a3b8" stroke-width="1" opacity=".42"/><line x1="936" y1="290" x2="1200" y2="450" stroke="#94a3b8" stroke-width="1" opacity=".42"/><line x1="948" y1="290" x2="1300" y2="450" stroke="#94a3b8" stroke-width="1" opacity=".42"/><line x1="960" y1="290" x2="1400" y2="450" stroke="#94a3b8" stroke-width="1" opacity=".42"/><line x1="972" y1="290" x2="1500" y2="450" stroke="#94a3b8" stroke-width="1" opacity=".42"/><line x1="984" y1="290" x2="1600" y2="450" stroke="#94a3b8" stroke-width="1" opacity=".42"/><line x1="996" y1="290" x2="1700" y2="450" stroke="#94a3b8" stroke-width="1" opacity=".42"/><line x1="1008" y1="290" x2="1800" y2="450" stroke="#94a3b8" stroke-width="1" opacity=".42"/><line x1="1020" y1="290" x2="1900" y2="450" stroke="#94a3b8" stroke-width="1" opacity=".42"/><line x1="1032" y1="290" x2="2000" y2="450" stroke="#94a3b8" stroke-width="1" opacity=".42"/><line x1="1044" y1="290" x2="2100" y2="450" stroke="#94a3b8" stroke-width="1" opacity=".42"/><line x1="1056" y1="290" x2="2200" y2="450" stroke="#94a3b8" stroke-width="1" opacity=".42"/><line x1="0" y1="300" x2="1800" y2="300" stroke="#94a3b8" stroke-width="1" opacity=".42"/><line x1="0" y1="317" x2="1800" y2="317" stroke="#94a3b8" stroke-width="1" opacity=".42"/><line x1="0" y1="344" x2="1800" y2="344" stroke="#94a3b8" stroke-width="1" opacity=".42"/><line x1="0" y1="384" x2="1800" y2="384" stroke="#94a3b8" stroke-width="1" opacity=".42"/><line x1="0" y1="435" x2="1800" y2="435" stroke="#94a3b8" stroke-width="1" opacity=".42"/><circle cx="110" cy="75" r="140" fill="url(#94_skyline-g)"/><circle cx="1730" cy="20" r="182" fill="url(#94_skyline-g)"/><circle cx="79.2" cy="65.0" r="3.08" fill="#e2e8f0" opacity="0.53"/><circle cx="327.5" cy="332.4" r="1.84" fill="#e2e8f0" opacity="0.52"/><circle cx="175.2" cy="175.5" r="2.01" fill="#e2e8f0" opacity="0.48"/><circle cx="210.7" cy="26.5" r="2.05" fill="#e2e8f0" opacity="0.34"/><circle cx="101.9" cy="403.8" r="1.54" fill="#e2e8f0" opacity="0.28"/><circle cx="324.3" cy="67.3" r="1.53" fill="#e2e8f0" opacity="0.66"/><circle cx="267.0" cy="204.2" r="3.28" fill="#e2e8f0" opacity="0.35"/><circle cx="47.6" cy="199.4" r="1.17" fill="#e2e8f0" opacity="0.70"/><circle cx="161.9" cy="57.9" r="2.63" fill="#e2e8f0" opacity="0.41"/><circle cx="75.4" cy="246.1" r="2.62" fill="#e2e8f0" opacity="0.48"/><circle cx="343.2" cy="158.8" r="1.92" fill="#e2e8f0" opacity="0.66"/><circle cx="107.8" cy="161.1" r="3.31" fill="#e2e8f0" opacity="0.53"/><circle cx="94.2" cy="378.8" r="3.23" fill="#e2e8f0" opacity="0.58"/><circle cx="84.0" cy="310.1" r="3.37" fill="#e2e8f0" opacity="0.56"/><circle cx="5.4" cy="113.7" r="1.90" fill="#e2e8f0" opacity="0.30"/><circle cx="154.2" cy="129.1" r="3.28" fill="#e2e8f0" opacity="0.46"/><circle cx="89.5" cy="183.6" r="2.72" fill="#e2e8f0" opacity="0.54"/><circle cx="319.1" cy="315.5" r="2.44" fill="#e2e8f0" opacity="0.50"/><circle cx="96.2" cy="123.6" r="1.57" fill="#e2e8f0" opacity="0.65"/><circle cx="150.5" cy="32.6" r="1.61" fill="#e2e8f0" opacity="0.59"/><circle cx="313.0" cy="29.2" r="1.81" fill="#e2e8f0" opacity="0.51"/><circle cx="121.4" cy="113.1" r="3.33" fill="#e2e8f0" opacity="0.56"/><circle cx="251.2" cy="378.1" r="1.05" fill="#e2e8f0" opacity="0.54"/><circle cx="82.2" cy="325.2" r="1.09" fill="#e2e8f0" opacity="0.46"/><circle cx="83.5" cy="397.1" r="1.75" fill="#e2e8f0" opacity="0.49"/><circle cx="10.2" cy="140.8" r="1.02" fill="#e2e8f0" opacity="0.65"/><circle cx="62.2" cy="164.3" r="1.25" fill="#e2e8f0" opacity="0.48"/><circle cx="285.3" cy="362.1" r="3.03" fill="#e2e8f0" opacity="0.51"/><circle cx="37.8" cy="424.1" r="2.06" fill="#e2e8f0" opacity="0.29"/><circle cx="230.9" cy="349.5" r="2.29" fill="#e2e8f0" opacity="0.63"/><circle cx="57.3" cy="59.8" r="1.04" fill="#e2e8f0" opacity="0.41"/><circle cx="199.8" cy="82.7" r="1.13" fill="#e2e8f0" opacity="0.40"/><circle cx="16.2" cy="372.7" r="2.71" fill="#e2e8f0" opacity="0.38"/><circle cx="78.9" cy="109.7" r="1.05" fill="#e2e8f0" opacity="0.62"/><circle cx="255.5" cy="294.9" r="3.35" fill="#e2e8f0" opacity="0.53"/><circle cx="325.1" cy="406.6" r="2.21" fill="#e2e8f0" opacity="0.34"/><circle cx="234.8" cy="108.0" r="2.61" fill="#e2e8f0" opacity="0.53"/><circle cx="64.7" cy="393.8" r="2.03" fill="#e2e8f0" opacity="0.62"/><circle cx="151.2" cy="31.0" r="2.41" fill="#e2e8f0" opacity="0.41"/><circle cx="139.7" cy="49.9" r="1.31" fill="#e2e8f0" opacity="0.66"/><circle cx="1645.1" cy="99.5" r="2.77" fill="#e2e8f0" opacity="0.33"/><circle cx="1534.2" cy="109.1" r="2.65" fill="#e2e8f0" opacity="0.57"/><circle cx="1515.5" cy="211.0" r="2.32" fill="#e2e8f0" opacity="0.55"/><circle cx="1708.9" cy="33.5" r="1.07" fill="#e2e8f0" opacity="0.27"/><circle cx="1515.5" cy="385.4" r="3.39" fill="#e2e8f0" opacity="0.59"/><circle cx="1747.1" cy="293.5" r="1.75" fill="#e2e8f0" opacity="0.33"/><circle cx="1737.9" cy="100.6" r="1.30" fill="#e2e8f0" opacity="0.40"/><circle cx="1766.4" cy="308.9" r="1.59" fill="#e2e8f0" opacity="0.58"/><circle cx="1468.8" cy="67.6" r="1.21" fill="#e2e8f0" opacity="0.72"/><circle cx="1714.7" cy="278.6" r="2.34" fill="#e2e8f0" opacity="0.61"/><circle cx="1709.8" cy="147.7" r="3.04" fill="#e2e8f0" opacity="0.66"/><circle cx="1498.4" cy="220.6" r="2.88" fill="#e2e8f0" opacity="0.36"/><circle cx="1639.5" cy="49.7" r="3.17" fill="#e2e8f0" opacity="0.52"/><circle cx="1603.7" cy="148.0" r="2.61" fill="#e2e8f0" opacity="0.42"/><circle cx="1639.4" cy="120.2" r="1.40" fill="#e2e8f0" opacity="0.35"/><circle cx="1633.7" cy="149.6" r="3.24" fill="#e2e8f0" opacity="0.55"/><circle cx="1542.4" cy="74.0" r="1.78" fill="#e2e8f0" opacity="0.45"/><circle cx="1488.1" cy="233.0" r="1.49" fill="#e2e8f0" opacity="0.52"/><circle cx="1464.3" cy="420.8" r="2.76" fill="#e2e8f0" opacity="0.63"/><circle cx="1550.4" cy="25.0" r="1.81" fill="#e2e8f0" opacity="0.70"/><circle cx="1537.7" cy="185.6" r="2.46" fill="#e2e8f0" opacity="0.22"/><circle cx="1569.2" cy="21.8" r="1.05" fill="#e2e8f0" opacity="0.61"/><circle cx="1623.6" cy="61.6" r="1.56" fill="#e2e8f0" opacity="0.69"/><circle cx="1744.9" cy="33.2" r="2.65" fill="#e2e8f0" opacity="0.71"/><circle cx="1586.3" cy="193.3" r="1.70" fill="#e2e8f0" opacity="0.65"/><circle cx="1496.7" cy="397.1" r="3.22" fill="#e2e8f0" opacity="0.36"/><circle cx="1784.1" cy="206.1" r="1.59" fill="#e2e8f0" opacity="0.35"/><circle cx="1641.5" cy="33.6" r="1.62" fill="#e2e8f0" opacity="0.59"/><circle cx="1464.7" cy="152.9" r="2.46" fill="#e2e8f0" opacity="0.54"/><circle cx="1757.6" cy="381.0" r="2.91" fill="#e2e8f0" opacity="0.44"/><circle cx="1595.6" cy="408.1" r="1.75" fill="#e2e8f0" opacity="0.43"/><circle cx="1626.6" cy="189.9" r="1.50" fill="#e2e8f0" opacity="0.57"/><circle cx="1548.8" cy="106.0" r="1.50" fill="#e2e8f0" opacity="0.65"/><circle cx="1511.2" cy="142.9" r="1.34" fill="#e2e8f0" opacity="0.39"/><circle cx="1607.7" cy="126.3" r="2.15" fill="#e2e8f0" opacity="0.49"/><circle cx="1731.8" cy="164.8" r="1.57" fill="#e2e8f0" opacity="0.42"/><circle cx="1784.2" cy="282.9" r="2.90" fill="#e2e8f0" opacity="0.51"/><circle cx="1786.1" cy="166.6" r="1.43" fill="#e2e8f0" opacity="0.32"/><circle cx="1793.0" cy="399.2" r="1.43" fill="#e2e8f0" opacity="0.36"/><circle cx="1747.5" cy="111.8" r="1.60" fill="#e2e8f0" opacity="0.50"/></g></svg>
